<svg id="Layer_1" data-name="Layer 1" xmlns="http://www.w3.org/2000/svg" viewBox="0 0 895.51 1262.77"><defs><style>.cls-1{fill:#2547b6;}.cls-2{fill:#0c2371;}</style></defs><g id="_2547b6ff" data-name="#2547b6ff"><path class="cls-1" d="M867.3,16.26c9.42-5.27,18.63-10.94,28.15-16q.15,207.53,0,415.06Q734.76,323.22,574.31,230.68c-13.22-7.75-26.67-15.1-39.76-23.06Q700.95,112,867.3,16.26Z" transform="translate(0 -0.23)"/><path class="cls-1" d="M891.47,569.37c1.31-.75,2.63-1.45,4-2.14q.15,207.53,0,415.06-153.13-87.69-306-175.88c-18.26-10.68-36.79-20.91-54.93-31.79Q713,672,891.47,569.37Z" transform="translate(0 -0.23)"/><path class="cls-1" d="M222,952c60.86-34.87,121.52-70.08,182.47-104.78q.15,207.53,0,415.05-165.89-95-331.46-190.55c-9.83-5.69-19.79-11.17-29.47-17.11Q132.8,1003.37,222,952Z" transform="translate(0 -0.23)"/></g><g id="_0c2371ff" data-name="#0c2371ff"><path class="cls-2" d="M490.52,699.27q0-207.53,0-415Q671.18,387.59,851.44,491.61C820.79,509.71,789.72,527.13,759,545,669.43,596.38,580.1,648,490.52,699.27Z" transform="translate(0 -0.23)"/><path class="cls-2" d="M0,567.23c1.34.11,2.75,0,3.93.79Q182.7,670.85,361.48,773.65c-38.74,22.6-77.75,44.74-116.58,67.19q-107,61.5-214,123.06C20.58,969.62,10.65,976.1,0,981.22Z" transform="translate(0 -0.23)"/><path class="cls-2" d="M491.5,1263q.06-207.39.06-414.79C539.15,875.28,586.51,902.79,634,930q109.22,62.84,218.45,125.63c-12.48,7.54-25.27,14.55-37.85,21.94Q653.3,1170.19,492.06,1263Z" transform="translate(0 -0.23)"/></g></svg>