<svg version="1.2" xmlns="http://www.w3.org/2000/svg" viewBox="0 0 600 482" width="600" height="482">
	<title>404-svg</title>
	<style>
		.s0 { fill: #f4f6f9 } 
		.s1 { fill: #ffffff } 
		.s2 { fill: #9ed5f0 } 
		.s3 { fill: #ffe945 } 
		.s4 { fill: #000000 } 
	</style>
	<path class="s0" d="m208.1 330.1c81.2 0 147.1-62 147.1-138.5 0-76.5-65.9-138.5-147.1-138.5-81.3 0-147.1 62-147.1 138.5 0 76.5 65.8 138.5 147.1 138.5z"/>
	<path class="s1" d="m467 190l-6-5.1-7.1-6-30.4-25.7-3.1 3.7c-1.2 0.7-2 1.8-2.3 3.3l-6.6 25.9c-0.5 1.9 0 4 1.3 5.9l-8.2 9.5c0.6-1.5 0.9-3 1-4.6 0.2-2.4-0.3-5.2-2.4-6.3-1.8-1.1-4.1-0.6-6 0.5-1.8 1.2-3.2 2.8-4.8 4.1-6.3 5.1-15.2 5.1-23.3 6.2-31.6 4.3-61.2 22.2-73.9 52.4l-0.3 0.1c-4.8 2.2-8.8 6.1-10.8 11.1l-0.5-0.5c-9.2-0.8-17.3 5.5-23.9 12.1-17.9 18.1-31.3 40.6-38.5 65.1l0.8-5.2c-20.8-49.5-50.5-96.5-86.8-134.7l-0.6 3.7c1.5-17.8 6.2-78.7 6.2-78.7 12.8-3.2 39-10.1 39-10.1-15.2-18.9-31.9-40.7-48.9-62.1-5.7-7-13.2-13.4-22-15.7l-28.2-0.5-11.2 45.8c-6.9-3.4-15.8-2.1-21.3 3.3-6.2 6.2-7 17.2-1.6 24.2 3.3 4.4 8.9 6.8 14.4 7l-0.1 0.5c-9.3 22.1-17.7 40.2-27.2 59.3 0 0-7.9 15.1-16.4 20.7-3.7 2.4-4.2 42.1-3.4 86.3-2.2 0.5-4.2 1-6.3 1.7-3.1 1-6.5 2.8-6.7 6-0.1 2.4 1.9 4.4 4.1 5.2 2.3 0.7 4.8 0.4 7.1 0.2 0.7-0.1 1.3-0.1 2-0.2q0 0.8 0 1.6c-1.4 0.3-2.8 0.5-4.2 0.8-3.1 0.8-6.8 2.4-7.1 5.6-0.2 2.4 1.6 4.5 3.9 5.4 2.2 0.8 4.7 0.7 7 0.6q0.4 0 0.7 0c0 0.2 0 0.3 0 0.6-0.8 0.1-1.6 0.1-2.4 0.2-3.2 0.3-7 1.5-7.7 4.6-0.5 2.3 1.1 4.7 3.1 5.9 2.1 1.2 4.5 1.4 6.9 1.5 0.1 0 0.3 0 0.4 0 0 1.1 0.1 2.1 0.1 3.1-1.4 0.3-2.8 0.5-4.2 0.9-3.1 0.7-6.7 2.3-7.1 5.6-0.2 2.3 1.7 4.5 3.9 5.4 2.3 0.9 4.7 0.8 7.1 0.7 0.2 0 0.4 0 0.7 0 1.1 36.5 2.4 65.8 2.4 65.8 0 0 50.6-64.9 111.7-15 64.4 52.6 128.8-19.4 170.7 2.1 41.8 21.5 43.7 52.6 43.7 52.6 6.5-15.2 6.6-33.1 0.4-48.3-3.4-8.4-8.8-16.3-9-25.3-0.3-8.4 3.7-16.1 6-24.2 5-17.8 0.8-38.1-11-52.5l0.3-0.5c4.9-6.9 7.6-15.4 7.5-23.9l1.6 0.5c4.5-0.8 9-2.5 13.3-3.7 0.7-0.2 1.4-0.4 1.9-0.5 0.2 0.2 0.5 0.5 0.8 0.7l8.8 7.4c2.4 2.1 6.1 1.9 8.2-0.6l4.8-5.6c3-0.3 6-1.1 8.8-2 1-0.4 2.1-0.8 3.1-1.3 0.4 0.2 0.8 0.3 1.3 0.5 4.2 1.7 6.4 0.3 7.6-1.6l0.2-0.4c1.2-2.9 0.1-6.4-2-8.7-0.4-0.3-0.7-0.7-1.1-1 0-0.1 0.1-0.2 0.1-0.3 3 1.3 6.1 2.6 9.7 4.1 4.2 1.7 6.4 0.3 7.6-1.6l0.2-0.5c1.2-2.9 0.1-6.3-2-8.7-2.2-2.3-5.1-3.6-8-4.8-0.6-0.2-1.4-0.5-2-0.8 0.1-0.1 0.1-0.2 0.2-0.3 3.1 0.9 6.1 1.7 9.8 2.7 4.4 1.2 6.4-0.5 7.4-2.7l0.1-0.4c0.8-3-0.8-6.3-3.2-8.3q-0.2-0.1-0.4-0.3c2.9 0.4 6.3 2.4 9.1 3.3 3.1 1.1 6.3 2.1 9.4 2.9 1.6 0.5 3.3 0.9 5 0.8 1.8-0.1 3.5-1 4.3-2.4 1-1.7 0.6-3.9-0.5-5.6-1.2-1.6-2.9-2.6-4.6-3.6-6.1-3.4-12.9-5.6-19.8-7.2l12.8-15.1c1.5 0.4 3.1 0.4 4.6-0.1l25-10.2q1.2-0.5 2-1.3l0.2 0.2z"/>
	<path class="s2" d="m107.1 109.6c0 3.2-2.1 5.8-4.8 5.8-2.7 0-4.8-2.6-4.8-5.8 0-3.2 5.1-15.7 5.1-15.7 0 0 4.5 12.6 4.5 15.7z"/>
	<path class="s3" d="m565.1 32.2c-33.9-28.7-77.8-32.4-98.1-8.4-2.8 3.4-5 7-6.6 11l-0.6-0.6-35.4 119.2 44 36.5 111.7-53.7-0.2-0.2c3.7-2.2 7-5.1 9.9-8.6 20.3-23.8 9.3-66.5-24.7-95.2z"/>
	<path fill-rule="evenodd" class="s4" d="m470.3 189.8l-6.5 7.7-0.4-0.3c-0.5 0.2-0.9 0.6-1.3 0.7l-25 10.2c-1 0.4-2.1 0.5-3.1 0.5-0.6 0-1 0-1.5-0.1l-10 11.8c4.9 1.4 9.7 3.1 14.4 5.4 3.3 1.7 7 3.7 7.9 7.6 0.9 3.8-1.5 7.1-5.3 7.7-2.2 0.5-4.4-0.1-6.5-0.7-2.3-0.7-4.5-1.3-6.8-2.1-2-0.6-3.9-1.4-5.9-2.1q0 0 0 0c1 2 1.4 4.2 0.9 6.4 0 0.2-0.1 0.3-0.2 0.6 0 0.1-0.1 0.2-0.1 0.3-1.2 2.5-3.6 3.9-6.3 3.9-0.5 0-1-0.2-1.7-0.3 0.5 0.6 1 1 1.4 1.6 1.8 2.6 2.6 6 1.4 9 0 0.1-0.1 0.2-0.2 0.3 0 0.1-0.1 0.3-0.2 0.4-1.6 2.6-4.3 3.7-7.3 3.1-2-0.3-3.7-1.3-5.5-2-0.6-0.2-1.2-0.6-1.8-0.8 0.9 2.2 1.2 4.8 0.3 7 0 0.1-0.1 0.2-0.2 0.3 0 0.1-0.1 0.4-0.2 0.5-1.6 2.5-4.3 3.6-7.3 3.1-2-0.3-3.7-1.3-5.5-2.1-1.3-0.5-2.7-1-4-1.7l-9.2 11c-1.3 1.5-3.1 2.4-5.1 2.5q-0.3 0-0.6 0c-1.7 0-3.4-0.6-4.8-1.7l-8.8-7.4c-0.5-0.4-0.9-0.8-1.2-1.3-0.6 0.1-1.1 0.4-1.6 0.5-4.1 1.1-8.1 2.6-12.3 3.4-0.2 8.4-2.8 16.5-7.5 23.4 8.9 11.5 13.5 26.1 12.7 40.6-0.4 7.1-2.4 13.7-4.7 20.4-2.5 7-4.6 13.9-2.6 21.2 1.8 7 5.7 13.4 8.4 20 2.6 6.8 4.1 14 4.4 21.2 0.5 13.7-3.4 27.5-11.3 38.9-7.3 10.6-17.6 18.7-29.5 23.4-2 0.8-2.8-2.3-0.9-3.1 12.9-5 23.8-14.7 30.7-26.7 6.8-11.8 9.2-26 7.1-39.5-1.1-7-3.6-13.4-6.6-19.8-2.9-6.1-6-12.4-6.4-19.4-0.4-7.3 2.5-14.1 4.8-20.8 2.2-6.3 3.5-12.7 3.4-19.3 0-12.8-4.4-25.7-12.6-35.8-0.4-0.4-0.4-1-0.3-1.5-0.1-0.3 0-0.7 0.2-1.1 4.5-6.3 7-13.8 7.3-21.6-14.5-3.1-28.2-9.2-40.3-17.8h-0.1c-1.2 0.5-2.2 1.2-3.3 1.8-0.6 0.5-0.9 0.6-1.3 1.1-0.4 0.4-1 0.9-1.4 1.3-0.4 0.4-0.8 1-1.3 1.4-0.2 0.3-0.3 0.3-0.4 0.5-0.2 0.2-0.3 0.6-0.5 0.8q-0.5 0.8-1 1.6c-0.1 0.3-0.3 0.5-0.4 0.9-0.1 0.1-0.1 0.3-0.3 0.4 0 0-0.2 0.4-0.1 0.2-0.2 0.5-0.5 1-1 1.1 1.5 2.7 3.3 5.2 5.3 7.6 0-0.1 0.1-0.1 0.2-0.2 2-2 4-4 6-5.9 0.6-0.7 1.6-0.6 2.2 0 0.7 0.5 0.7 1.7 0 2.2-1.9 2-4 4-5.9 5.9-0.1 0.1-0.2 0.2-0.3 0.2 2.7 2.7 5.7 5.2 8.9 7.2 1.3-1.7 2.5-3.5 3.8-5.2 0.5-0.8 1.3-1 2.2-0.6 0.8 0.5 1.1 1.5 0.5 2.3-1.2 1.7-2.4 3.5-3.7 5.3q3.7 1.9 7.7 3.2c1.9 0.6 1.2 3.7-0.8 3.1-3.3-1-6.3-2.3-9.2-3.9-0.3 0.1-0.7 0-1-0.2-0.4-0.2-0.6-0.4-0.7-0.8-7.5-4.6-13.8-11-18-18.7-0.3-0.7-0.2-1.3 0.1-1.7-6.7 0.2-12.6 3.9-17.4 8.2-7.5 6.7-14.2 14.5-19.9 22.9 0 0.2-0.1 0.4-0.2 0.7-1.5 2.5-3 5.1-4.5 7.7-5.9 10.5-11.2 21.3-15.2 32.7 4.7 11.5 9 23.1 12.8 34.9 2 5.9 3.9 11.8 5.3 17.8 1.1 5 1.7 10.8-1.2 15.3-2.9 4.6-8.5 6.1-13.5 4.8-5.3-1.3-9.3-5-11.9-9.7-2.7-5-3.7-10.8-3.8-16.4-0.2-5.9 0.4-11.9 1.3-17.7 1.3-8.5 3.4-16.9 6.2-25-0.1-0.3-0.1-0.6 0-1 0.4-1.2 0.8-2.3 1.2-3.5-1.7-4.1-3.4-8.2-5.2-12.2-10.2-22.5-22.3-44.3-35.9-64.9-12.7-19.2-27-37.5-42.6-54.3-0.2 0.3-0.6 0.6-1 0.7-8.4 3.6-17.3 5.7-26.3 6.6-15.3 1.4-30.9-1.2-45-7.7-13-5.9-24.6-15.1-33.4-26.4-0.5-0.6-0.6-1.6 0-2.2 0.4-0.3 0.8-0.5 1.3-0.5 2-3.8 3.8-7.7 5.7-11.5q10.8-22.4 20.3-45.1c-5.3-0.8-10.2-3.4-13.4-7.6-5.8-7.7-5.1-19.4 1.8-26.3 4.1-4 10.1-6 15.8-5.5-8.5-17.5-9.2-53.6 10-62.7 25-11.9 40.6 6 57.8-18.4 9.9 13.3 1.9 32.4-5.9 36.9-3 1.9-6 2.8-8.8 3.4 4.1 2 7.8 4.8 11 8 5 4.8 9.1 10.7 13.4 16.1 4.6 5.9 9.2 11.7 13.9 17.6 8.8 11.3 17.6 22.6 26.6 33.7 0.7 0.9 0.5 2.4-0.8 2.7-1.2 0.3-2.2 0.7-3.4 0.9-11.5 3-23.1 6-34.6 9-0.2 2.1-0.3 4.3-0.5 6.4-1 12.3-1.8 24.5-2.8 36.6-0.8 10-1.5 20-2.4 30 2.1 2.1 4 4.3 6 6.4 17.2 19 32.6 39.6 46.1 61.2 12.9 20.5 24 42.1 33.6 64.5q2.6-7.3 5.8-14.2c5.9-12.7 13.5-24.5 22.5-35 4.4-5.2 9.2-10.3 14.5-14.5 5.3-4.1 11.4-7.1 18.2-6.7 2.3-4.5 6-8.2 10.7-10.3 0.7-1.4 1.2-2.8 1.8-4.1 6.2-12.4 15.7-22.9 27-31 11.4-8 24.6-13.5 38.1-16.3 3.6-0.8 7.1-1.3 10.6-1.7 3.8-0.4 7.6-0.8 11.2-1.6 3.8-1 7.1-2.5 9.9-5.2 2.7-2.6 6.2-5.5 10.3-4 3 1.1 4.1 4.3 4.2 7.2l3.5-4.1c-1.1-2-1.4-4.1-0.8-6.2l6.5-25.8c0.1-0.5 0.2-0.9 0.4-1.2l0.1-0.1c0.6-1.2 1.4-2.2 2.4-2.8l4-4.7 6.8 5.8 31.8 26.8zm-50.1 46.3q0-0.1 0-0.1 0 0 0 0.1zm-420.2-32.7c0.2-7.8 0.3-15.8 0.5-23.6 0.7-27.9 1.2-55.8 1.8-83.7 0-2.1 3.3-2.1 3.3 0-0.3 7.8-0.4 15.8-0.6 23.6-0.6 27.9-1.2 55.8-1.8 83.7-0.1 2.2-3.3 2.2-3.2 0zm63.6 113.9c0.4 2.1-2.7 2.9-3.1 0.9-1.1-7.4 0.7-14.6 3.1-21.7 2.3-6.3 5-12.6 6.2-19.1 1.4-7.6-0.4-15-1.6-22.5-1.1-6.4-1.7-12.8 0.1-19.2 1.5-5.3 4.6-10.4 9.7-12.9 1.9-1 3.5 1.8 1.6 2.7-5.5 2.8-8.1 8.8-9 14.8-0.8 6.6 0.6 13.2 1.6 19.6 1.2 7 1.6 13.8 0 20.8-2.6 12.1-10.6 23.9-8.6 36.6zm14.6-12.1c0.5 2.4-0.3 4.9-2.1 6.6-1.1 0.8-2.3 1.4-3.7 1.2-1.3-0.1-2.6-0.6-3.7-1.6-1.5-1.3-2.4-3.3-2.2-5.2h-0.1c-0.7-0.5-0.9-1.5-0.5-2.3 1.3-2.5 4.3-3.7 7.1-3.4 2.5 0.3 4.7 2 5.2 4.7zm-3.1 1.5c0-0.2 0-0.3 0-0.5 0 0 0 0 0-0.1q0-0.2 0-0.4c0-0.2-0.1-0.3-0.2-0.5 0-0.1-0.1-0.2-0.1-0.2 0-0.1-0.1-0.2-0.2-0.2-0.1-0.2-0.3-0.3-0.4-0.5-0.1-0.1-0.2-0.1-0.2-0.1-0.2-0.1-0.3-0.1-0.4-0.2-0.2-0.1-0.4-0.1-0.6-0.2-0.1 0-0.2 0-0.3-0.1q-0.4 0-0.7 0c-0.1 0-0.2 0-0.4 0-0.1 0.1-0.4 0.1-0.7 0.1-0.2 0.1-0.4 0.1-0.6 0.2-0.1 0-0.2 0.1-0.2 0.1l-0.1 0.1c0.3 0.6 0.3 1.2 0 1.7 0 0 0 0.1-0.1 0.1 0 0.1-0.1 0.3-0.1 0.3 0 0 0 0.3 0 0.4q0 0.2 0 0.3c0 0 0.2 0.7 0.2 0.8 0 0 0 0.1 0.1 0.1 0.1 0.1 0.1 0.2 0.2 0.3 0.1 0.1 0.1 0.2 0.2 0.3 0 0 0 0 0.1 0.1 0.2 0.3 0.3 0.5 0.6 0.6 0 0 0 0 0.1 0 0.1 0.1 0.2 0.1 0.3 0.2 0.1 0.1 0.2 0.1 0.3 0.2 0.2 0 0.4 0.1 0.7 0.2q0.1 0 0.3 0c0.1 0 0.2 0 0.2 0 0.1 0 0.2-0.1 0.3-0.1 0.2-0.1 0.3-0.2 0.6-0.3 0.1-0.1 0.1-0.1 0.2-0.2 0.1-0.1 0.2-0.2 0.3-0.5 0 0 0 0 0-0.1 0.1-0.1 0.1-0.2 0.2-0.3 0.1-0.1 0.1-0.3 0.2-0.4v-0.1c0-0.1 0.1-0.2 0.1-0.3 0.1-0.3 0.1-0.5 0.1-0.7 0 0.1 0 0 0-0.1zm-30.9 16.2c0 0.1 0 0.3-0.1 0.5 0 0.1 0 0.3-0.1 0.4-0.5 2.1-2 3.7-4 4.5 2.2 1.7 3.6 4.1 3.8 6.9 0 0.2 0 0.4-0.1 0.6 0 0.1 0 0.2 0 0.2-0.3 2.6-2.2 4.5-4.6 5.4-1.8 0.5-3.6 0.5-5.3 0.5-2 0.1-4.1 0.1-6.1 0.2q-4.4 0.2-8.7 0.4c0.6 26 1.6 52.1 3 78.1 0.1 2.1-3.1 2.1-3.2 0-1.1-19.7-1.9-39.6-2.5-59.4-0.2-6.2-0.3-12.4-0.5-18.6-3 0.1-6.2 0.2-8.8-1.2-2.6-1.4-4.6-4.3-3.9-7.3 0.5-2.6 2.8-4.3 5-5.3 2.3-0.9 4.8-1.5 7.1-1.9-2.8-0.2-5.7-0.4-8-1.9-2.5-1.6-4.3-4.5-3.6-7.6 0.5-1.8 1.7-3.2 3.4-4-0.4-0.1-0.6-0.2-0.9-0.4-2.6-1.4-4.5-4.3-3.9-7.3 0.6-2.5 2.8-4.3 5.1-5.2h0.1c-0.9-0.1-1.8-0.3-2.7-0.8-2.7-1.1-4.8-3.7-4.6-6.7 0.2-2.8 2.3-4.8 4.7-5.9 3-1.5 6.6-2.4 9.9-3.2 0-9.4 0-19 0.1-28.4 0.3-35.3 1.3-70.5 2.9-105.9 0.1-2 3.3-2 3.2 0-1 19.8-1.6 39.7-2.1 59.4-0.6 21.5-0.9 43-0.9 64.3 5.9 2.7 11.5 6.1 16.8 9.9 0.4 0.2 0.9 0.4 1.4 0.7 2.5 1.7 4.2 4.1 4.6 7.1 0 0.1 0 0.4 0 0.5-0.2 2.6-1.5 4.8-4 5.9-0.4 0.2-1 0.3-1.4 0.4 1.1 0.3 2 0.8 2.9 1.4 2.6 1.7 4.3 4.3 4.5 7.4 0 0.2 0 0.4-0.1 0.6 0 0.2 0 0.3 0 0.3-0.3 2.5-2.1 4.5-4.6 5.3-0.3 0.1-0.7 0.1-0.9 0.2 1.1 0.5 2.1 1.1 3 1.9 2.7 2.1 4.2 5 4.1 8zm-26-39.5c2.7-0.5 5.5-1 8.3-1.2 0.3 0 0.8 0 1.1-0.1q-4.5-2.9-9.4-5.1 0 3.2 0 6.4zm-7.8 14.1c2.9-0.1 5.8-0.7 8.7-0.9 2.7-0.3 5.4-0.5 8-0.7 1.4-0.1 2.9-0.4 4.3-0.5 1.4-0.1 2.8-0.2 4-0.6 1.4-0.5 2.3-1.5 2.4-3 0-0.1 0-0.1 0-0.2 0-0.1 0-0.1 0-0.2-0.1-1.2-0.8-2.2-1.5-3-0.4-0.2-0.6-0.3-0.8-0.5-0.6-0.5-1.3-0.9-1.9-1.5-0.2-0.1-0.4-0.2-0.7-0.2-3.2-1.1-6.7-0.6-9.9-0.1-3.1 0.4-6.2 1.1-9.1 1.8-2.5 0.7-5.2 1.3-7.5 2.6-1.6 1-3.3 2.5-2.4 4.5 0.9 2.2 4 2.6 6.4 2.5zm1.8 13.7c2.9 0 5.8-0.2 8.7-0.3 2.7-0.1 5.4-0.2 8.2-0.3 1.5 0 3-0.1 4.6-0.1 1.3 0 2.7 0 3.9-0.5 1.5-0.5 2.1-1.6 2.3-3v-0.1c-0.2-2.8-2.7-4.9-5.1-5.8-3-1-6.4-0.7-9.5-0.5-3.1 0.2-6.1 0.6-9.2 1.2-2.5 0.4-5.2 0.8-7.5 2-1.6 0.8-3.6 2.3-2.8 4.4 0.9 2.5 4.1 3 6.4 3zm23.2 18.3c-3-1.1-6.3-0.8-9.4-0.6-3.2 0.2-6.3 0.7-9.3 1.2-2.4 0.4-5.1 0.9-7.5 1.9-1.6 0.8-3.5 2.3-2.8 4.4 1 2.6 4.1 3.2 6.5 3.2 2.9 0 5.8-0.3 8.7-0.4 2.6-0.1 5.3-0.2 8.1-0.2 1.5 0 3-0.1 4.6-0.1 1.3 0 2.7 0 3.9-0.4 1.5-0.5 2.1-1.6 2.4-3v-0.1c-0.3-2.9-2.7-5.1-5.2-5.9zm5.5-6.6c0.4-7-8.5-8-13.5-8.2-3.3-0.3-6.4-0.3-9.6 0-2.6 0.1-5.4 0.2-7.8 1-1.9 0.7-3.8 2.1-3 4.2 0.8 2.6 3.7 3.5 6.1 3.8 5.5 0.7 11.1 0.9 16.6 1.5 1.4 0.1 2.9 0.3 4.3 0.4 1.3 0.1 2.7 0.3 4 0.1 1.6-0.3 2.6-1.3 2.9-2.8zm285.1-41.4c-0.7-0.4-0.9-1.5-0.5-2.3 1.3-1.9 2.6-3.9 3.9-5.9 0.5-0.7 1.4-0.9 2.2-0.5 0.8 0.4 1 1.5 0.6 2.2-1.3 2-2.6 4-3.9 5.9-0.5 0.8-1.4 1.1-2.3 0.6zm-187.3-132.7c0.5-7.2 1.1-14.4 1.6-21.7 0-0.8 0.4-1.4 1.2-1.5q5-1.3 10-2.6c8.9-2.2 17.8-4.6 26.6-7-4.3-5.3-8.6-10.7-12.8-16.1-9-11.5-17.9-22.9-27-34.4-7.8-9.7-15.4-20.5-27.6-24.5-8.8 0.6-16 0.1-20.9 13.5-3.2 9.1-1.1 21.5-13.7 29.2l-3.4-0.1c0.5 0.3 1.1 0.8 1.7 1.1 0.7 0.5 0.8 1.5 0.3 2.2-0.5 0.8-1.5 0.9-2.3 0.4-6.3-4.9-16.4-4.2-22 1.4-5.5 5.5-6.3 15.6-1.5 22 4.9 6.3 14.7 8.3 21.7 4.4 0.8-0.5 1.7-0.2 2.2 0.6 0.4 0.8 0.2 1.7-0.7 2.2-2.8 1.6-5.9 2.3-9 2.4-1.9 4.5-3.7 8.9-5.7 13.5-6.6 15.3-13.8 30.4-21.1 45.4 4.5 5.4 9.5 10.4 15.2 14.6 11.4 8.4 24.8 14 38.9 16.1 14.7 2.1 29.9 0.3 43.8-5.2q0.6-8 1.3-16.1c1.2-13.1 2.2-26.5 3.2-39.8zm85.3 194.2c-3.4 10.3-6.1 20.9-7 31.8-1 10.1-1.4 23.3 7 30.5 3.5 3 9.3 4.6 13.4 2 4.5-2.8 4.5-8.8 3.7-13.3-1-5.7-3-11.3-4.7-16.8q-2.7-8.6-5.8-17.3c-2.2-5.6-4.3-11.3-6.6-16.9zm168-127.5c-1.9 0.3-3.7 0.4-5.4 1.1-1.7 0.8-2.7 2.4-3.8 3.8-1.3 1.6-2.8 2.9-4.3 4.3-3 3-5.8 6.1-9.2 8.7-6.3 4.8-15 7.6-22.8 4.6-1.9-0.8-1-3.9 0.9-3.1 1.7 0.6 3.5 1.1 5.4 1.2 8 0.2 14.8-4.8 20.2-10.1 1.3-1.4 2.6-2.9 4.1-4.3 1.4-1.3 2.6-2.5 3.8-4 1-1.3 2-2.7 3.4-3.4 1.7-1 3.7-1.3 5.6-1.6 2.3-0.4 4.3-1.1 6.2-2.2l8.1-9.5c0.9-2.5 1.6-6.4-0.3-8.4-2.8-2.9-7 2-9 3.7-5.6 4.8-12.9 5.7-19.9 6.5-6.7 0.7-13.1 1.8-19.5 3.6-12.5 3.6-24.4 9.4-34.5 17.5-9.7 7.9-17.5 17.7-22.6 29.1 11.9 8.4 25.3 14.4 39.4 17.4 0.3-0.3 0.6-0.5 1-0.5 2.2-0.3 4.2-0.9 6.2-1.5 2.1-0.7 4-1.3 5.9-1.8 0.7-0.3 1.2-0.4 1.9-0.6-0.5-2.1 0.1-4.4 1.6-6.2zm-12.9 24.6c1.1-1.5 2.8-2.3 4.5-2.5-1.2-1.4-1.9-3.3-1.8-5.1l-11 12.9c0.3 0 0.7 0 0.9 0 2.2 0.2 4.5 0.7 6.8 1.2-0.8-2.1-0.8-4.7 0.6-6.5zm1.8 24.3c-2.7-1-5.2-2.2-7.9-3.3-3-1.2-6.1-2.3-8.1-5-0.5-0.7-0.8-1.4-1.1-2.3l-6.6 7.9c-1.5 1.8-1.3 4.5 0.5 6l8.8 7.4c1.9 1.5 4.5 1.3 6-0.6zm13.3-8.4c-2.2-1-4.5-1.9-6.6-2.7-1.5-0.7-3.1-1.2-4.5-2.1-1.3-0.4-2.5-0.7-3.8-1-2.4-0.7-5.1-1.4-7.7-1.5-1.8-0.1-4.3 0.2-4.8 2.2-0.7 2.5 1.6 4.5 3.5 5.6 2.5 1.3 5.2 2.3 7.6 3.2 2.5 1.1 5 2.1 7.6 3.1 2.6 1.1 5.3 2.6 8 3.4 1.8 0.5 3.4 0.2 4.5-1.4 0 0 0-0.1 0.1-0.1 1.4-3.8-0.8-6.7-3.9-8.7zm8.1-11.2c-2.2-0.9-4.6-1.6-7-2.3-0.6-0.1-1.1-0.3-1.8-0.4-1.2-0.3-2.5-0.5-3.6-1-1.3-0.2-2.5-0.4-3.8-0.5-1.8-0.1-4.3 0.2-4.8 2.3-0.6 2.2 1.1 4.2 3 5.2q4 1.3 7.7 2.9c1.4 0.7 2.8 1.4 4.1 2.3q1.9 0.8 3.8 1.6c2.7 1.1 5.4 2.6 8.1 3.3 1.8 0.6 3.4 0.2 4.5-1.4 0 0 0-0.1 0.1-0.1 2.4-6.4-5.5-10.1-10.3-11.9zm12.2-10.2c-2.5-1.7-5.5-2.5-8.5-3.1-3-0.7-6.2-1.2-9.2-1.5-2.4-0.3-5.1-0.7-7.7-0.3-1.8 0.2-4.2 1.1-4 3.4 0.2 2.7 2.9 4.1 5.2 4.8 0.2 0.1 0.3 0.1 0.5 0.1 1.8 0.5 3.6 0.9 5.4 1.4q0.5 0.2 1 0.3c0.5 0.2 0.9 0.3 1.5 0.4 2.5 0.6 5.2 1.4 7.8 2.1 1.4 0.4 2.8 0.8 4.2 1.1 1.3 0.3 2.7 0.9 4.1 0.9 1.7 0 2.8-0.8 3.4-2.3 0 0 0 0 0-0.1 0.5-2.9-1.3-5.7-3.7-7.2zm5.7-11.6l-6.3 7.5c0.3 0.1 0.6 0.3 1 0.4 0.2 0 0.4 0 0.6 0.2 1.8 0.3 3.6 1 5.3 1.8 1.9 0.8 3.7 1.6 5.7 2.1 2 0.7 4.2 1.3 6.2 2 2 0.5 4.3 1.4 6.4 0.9 1.6-0.3 2.9-1.5 2.7-3.3-0.2-1.8-1.6-3.1-3.1-4.1-3.2-2.1-7-3.7-10.6-5-2.6-1.1-5.2-1.9-7.9-2.5zm11-16.5c-5.6-4.2-11.2-8.5-16.8-12.7l-7.4 8.7c-0.5 1.5-1.3 3-2.2 4.3-1.7 2.6-4.1 4.7-6.7 6.2l-11.6 13.8c1-0.4 1.9-0.5 2.8-0.6 3.2-0.3 6.7 0.2 9.9 0.7 3.8 0.5 7.6 1.1 11.3 2.2h0.1l19.6-23.3c0.5 0.5 0.7 0.6 1 0.7zm29.5-11.6l-40.1-34-6.5 25.7c-0.3 1.1-0.1 2.4 0.4 3.4 0.3 0 0.5 0.1 0.6 0.3 6.1 4.6 12.1 9.2 18.2 13.8 0.5 0.3 0.8 0.9 0.8 1.4 0.6 0 1.2-0.1 1.7-0.3zm0.3-8.8l-31.8-26.9c-1.2-1-2.7-1.6-4.2-1.6-0.6 0-1.1 0.1-1.7 0.2-0.3 0.1-0.5 0.3-0.7 0.4l-0.1 0.1 40.7 34.3c0.1-0.3 0.2-0.6 0.2-0.9 0.3-2-0.7-4.1-2.4-5.6zm-378.5 59.1c1 2.3 0.5 4.9-1.2 6.7-0.8 0.8-1.8 1.5-2.9 1.8-0.6 0.2-1.5 0.3-2.2 0.1-0.7-0.2-1.2-1.1-1.8-1.6-0.1-0.1-0.1-0.2-0.2-0.3-0.7 0.4-1.6 0-2.1-0.7-1.4-1.9-1.3-4.6-0.1-6.5 1-1.8 3.1-3 5.2-2.9 2.2 0.2 4.3 1.4 5.3 3.4zm21.9-99.9c-6.8-1.3-13.9 1.3-18.4 6.4-1.3 1.6-3.6-0.6-2.2-2.2 5.2-6 13.6-8.8 21.4-7.2 2.1 0.4 1.2 3.5-0.8 3zm-29.1-44.4c0.5 0.7 0.6 1.6 0 2.3-0.6 0.5-1.7 0.6-2.3 0-3.7-4.7-9.5-7.5-15.6-7.4-2.1 0-2.1-3.2 0-3.2 6.8 0 13.6 3.1 17.9 8.3zm17.6-37.6c1.5-2.5 3.5-4.7 6-6.2 0.9-0.5 1.8-0.2 2.3 0.6 0.5 0.7 0.2 1.8-0.6 2.2-0.3 0.2-0.5 0.3-0.8 0.6-0.1 0-0.3 0.1-0.4 0.2l-0.1 0.1c-0.5 0.4-0.9 0.8-1.4 1.3q-0.3 0.3-0.6 0.6c-0.1 0.2-0.2 0.3-0.3 0.4l-0.1 0.2c-0.4 0.4-0.7 0.9-1 1.5-0.5 0.7-1.5 0.9-2.3 0.5-0.7-0.4-1-1.5-0.7-2zm44.5 154.3c-8.4 4.3-17.2 8.7-26.8 10.2-4.1 0.7-8.3 0.8-12.3 0.1-4.1-0.7-7.9-2.3-11.6-3.9-4.1-1.7-8.1-3-12.5-3.5-4.2-0.3-8.5-0.3-12.6-1.3-13.2-2.8-24.2-13.9-27.2-27.1-0.5-2.1 2.7-2.9 3.1-0.9 1.6 7 5.7 13.3 11.2 18 5 4.1 11.3 6.8 17.9 7.5 4.1 0.3 8.1 0.3 12.1 1 4 0.8 7.5 2.4 11.2 4 3.7 1.6 7.5 2.9 11.5 3.2 3.9 0.4 7.9-0.1 11.8-0.9 8-1.9 15.5-5.5 22.8-9.3 1.9-0.9 3.5 1.9 1.4 2.9zm-57.5 29.8c0-0.1 0-0.1 0-0.1 0-0.1 0-0.2-0.1-0.4 0-0.1 0-0.1-0.1-0.2 0 0.1 0.1 0.1 0.1 0.2 0 0-0.2-0.3-0.2-0.4 0-0.1-0.1-0.1-0.1-0.2 0-0.1-0.2-0.3-0.4-0.3q-0.1-0.2-0.3-0.3c0 0 0 0-0.1 0-0.1-0.1-0.2-0.1-0.3-0.3-0.1-0.1-0.2-0.1-0.4-0.2-0.1 0-0.4-0.1-0.1 0 0.2 0-0.1 0-0.1 0-0.3-0.1-0.4-0.1-0.6-0.1 0 0-0.1 0-0.2 0-0.2 0-0.3 0-0.5 0 0 0 0.1 0-0.1 0h-0.2c-0.2 0-0.3 0.1-0.5 0.1 0 0 0 0-0.1 0q-0.2 0 0 0h-0.1c0 0-0.2 0.1-0.3 0.2-0.1 0-0.1 0.2-0.2 0.2 0 0-0.1 0.2-0.3 0.3q0-0.2 0 0c0 0.1-0.1 0.1-0.1 0.2-0.1 0.1-0.1 0.2-0.2 0.3 0 0 0 0 0 0.1 0 0.1 0 0.1 0 0.1v0.1c-0.1 0.2-0.1 0.4-0.1 0.6v0.2q0 0.1 0 0c0 0.1 0 0.3 0 0.4 0 0.1 0 0.3 0 0.4 0 0.2 0 0.3 0.1 0.3 0 0.1 0.1 0.2 0.1 0.4 0 0.1 0.1 0.1 0.1 0.2 0.1 0.1 0.3 0.3 0.3 0.4 0.6-0.3 1.3-0.2 1.8 0.4q0.3 0.3 0.6 0.6c0 0 0 0 0.1 0 0.1 0 0.1 0 0.2-0.1 0 0 0.2 0 0.3-0.1 0.1 0 0.1-0.1 0.1-0.1 0.2-0.1 0.3-0.2 0.5-0.3 0.1-0.2 0.1-0.2 0.2-0.3 0 0 0.3-0.3 0.4-0.4 0 0 0-0.1 0.2-0.1 0.1-0.1 0.1-0.2 0.1-0.2 0.1-0.1 0.1-0.2 0.2-0.3 0.1-0.1 0-0.1 0-0.1 0-0.1 0.1-0.4 0.2-0.5 0-0.1 0-0.2 0.1-0.2 0-0.1 0-0.3 0-0.5zm33.6-191.7c-0.1 0-0.1 0-0.2 0-0.1 0-0.3 0-0.4 0-0.4 0-0.6-0.1-0.9-0.1-0.3 0-0.6 0-0.9-0.1-0.2 0.1-0.3 0.2-0.5 0.3-0.7 0.3-1.8-0.3-1.9-1-0.4-1.4 0.7-2.5 2.1-2.5 0.8 0 1.6 0.1 2.4 0.2 1.7 0.2 3.4 0.6 5 0.9 0.9 0.2 1.3 1.2 1.1 1.9-0.2 0.9-1.2 1.3-1.9 1.1-1.4-0.2-2.6-0.4-3.9-0.7zm6.6 22.7c0.2 0.9-0.3 1.6-1.1 1.9-0.8 0.3-1.8-0.2-2-1-0.5-3.6-1.7-6.8-3.5-9.9-0.5-0.8-0.2-1.9 0.5-2.3 0.8-0.4 1.9-0.2 2.3 0.6 1.9 3.3 3.2 6.9 3.8 10.7zm-9.1 0c0.5 0.9 0.2 1.7-0.5 2.2-0.8 0.5-1.9 0.3-2.3-0.5-1.2-2.8-2.4-5.6-3.7-8.4-0.4-0.8-0.2-1.7 0.5-2.2 0.8-0.4 2-0.2 2.3 0.5 1.3 2.9 2.6 5.7 3.7 8.4zm-36.5 168.2c0 0 0.1 0 0 0zm0.7 59.5c0-0.1 0-0.1 0-0.1 0 0.1 0 0.2 0 0.1zm-5.3 1.7c0 0-0.1-0.2 0 0zm9.7-59q0-0.2 0 0zm-3.1-3.8c0 0 0.1 0 0 0zm-1.1 0.4c0 0 0.1 0 0 0zm-0.4 0.6c0-0.1 0 0 0 0z"/>
</svg>